<?xml version="1.0" encoding="UTF-8" standalone="no"?>
<!-- Created with Inkscape (http://www.inkscape.org/) -->

<svg
   width="111.62662mm"
   height="145.04076mm"
   viewBox="0 0 111.62661 145.04076"
   version="1.1"
   id="svg318"
   inkscape:version="1.1.2 (0a00cf5339, 2022-02-04)"
   sodipodi:docname="logo_v4_white.svg"
   inkscape:export-filename="/home/misbach/Insync/mickael@misba.ch/Google Drive/Consulting Indépendant/Marketing/Logo/logo_v4_white_website_1024px.png"
   inkscape:export-xdpi="153.57347"
   inkscape:export-ydpi="153.57347"
   xmlns:inkscape="http://www.inkscape.org/namespaces/inkscape"
   xmlns:sodipodi="http://sodipodi.sourceforge.net/DTD/sodipodi-0.dtd"
   xmlns="http://www.w3.org/2000/svg"
   xmlns:svg="http://www.w3.org/2000/svg">
  <sodipodi:namedview
     id="namedview320"
     pagecolor="#000000"
     bordercolor="#666666"
     borderopacity="1.0"
     inkscape:pageshadow="2"
     inkscape:pageopacity="0"
     inkscape:pagecheckerboard="true"
     inkscape:document-units="mm"
     showgrid="false"
     inkscape:zoom="1.2810466"
     inkscape:cx="139.33919"
     inkscape:cy="322.39264"
     inkscape:window-width="1920"
     inkscape:window-height="1131"
     inkscape:window-x="0"
     inkscape:window-y="32"
     inkscape:window-maximized="1"
     inkscape:current-layer="layer1"
     fit-margin-top="0"
     fit-margin-left="0"
     fit-margin-right="0"
     fit-margin-bottom="0" />
  <defs
     id="defs315" />
  <g
     inkscape:label="Layer 1"
     inkscape:groupmode="layer"
     id="layer1">
    <path
       id="text20820"
       style="font-style:normal;font-weight:normal;font-size:10.5833px;line-height:1.25;font-family:sans-serif;fill:#ffffff;fill-opacity:1;stroke:none;stroke-width:0.264583"
       d="m 0,0 c 0,2.1876356 0,4.3752714 0,6.562907 2.8077527,0.4823134 5.6155057,0.9646266 8.4232585,1.44694 0,19.757623 0,39.515246 0,59.272868 C 5.6155057,67.765027 2.8077527,68.247341 0,68.729653 c 0,2.527149 0,5.054301 0,7.58145 2.8077527,0.482314 5.6155057,0.964626 8.4232585,1.44694 0,19.757623 0,39.515247 0,59.272867 C 5.6155057,137.51322 2.8077527,137.99554 0,138.47785 c 0,2.18764 0,4.37527 0,6.56291 7.3380533,0 14.676107,0 22.01416,0 8.078749,-19.03416 16.157497,-38.06831 24.236247,-57.102461 1.314738,1.44576 1.801164,4.127339 2.79595,6.050463 6.991736,17.017328 13.983472,34.034668 20.975209,51.051998 7.561812,0 15.123622,0 22.685435,0 0,-2.18764 0,-4.37527 0,-6.56291 -2.807753,-0.48231 -5.615506,-0.96463 -8.423259,-1.44694 0,-19.75762 0,-39.515244 0,-59.272867 2.807753,-0.482314 5.615506,-0.964626 8.423259,-1.44694 0,-2.527149 0,-5.054301 0,-7.58145 -2.807753,-0.482312 -5.615506,-0.964626 -8.423259,-1.446938 0,-19.757622 0,-39.515245 0,-59.272868 2.807753,-0.4823134 5.615506,-0.9646266 8.423259,-1.44694 0,-2.1876356 0,-4.3752714 0,-6.562907 C 85.145188,0 77.583378,0 70.021566,0 62.201199,19.034152 54.38083,38.068305 46.560464,57.102456 45.229054,55.66366 44.711707,52.994993 43.694749,51.08113 36.467885,34.054086 29.241022,17.027043 22.01416,0 14.676107,0 7.3380533,0 0,0 Z m 74.31071,13.849284 c 0.602832,1.77404 0.08618,4.465836 0.258382,6.592911 0,15.613507 0,31.227014 0,46.84052 -2.962783,0.482312 -5.925564,0.964626 -8.888347,1.446938 0,2.527149 0,5.054301 0,7.58145 2.962783,0.482314 5.925564,0.964626 8.888347,1.44694 0,17.793917 0,35.587837 0,53.381757 -1.238404,-1.40587 -1.796159,-4.08959 -2.772736,-5.98702 C 64.491475,107.60873 57.186591,90.064687 49.88171,72.520637 58.024709,52.963518 66.167711,33.406402 74.31071,13.849284 Z m -56.482341,0.103353 c 8.418435,19.522666 16.836871,39.045333 25.255306,58.568 -8.418435,19.522495 -16.836871,39.044993 -25.255306,58.567483 -0.58512,-1.6592 -0.03771,-4.23602 -0.187157,-6.24822 0.216809,-15.69327 0.354331,-31.386983 0.29051,-47.081857 3.031684,-0.482314 6.063368,-0.964626 9.095052,-1.44694 0,-2.527149 0,-5.054301 0,-7.58145 C 23.99509,68.247341 20.963406,67.765027 17.931722,67.282715 18.019112,49.522054 17.789626,31.76321 17.569987,14.004313 Z" />
    <g
       aria-label="Ingénieur-Conseil"
       transform="rotate(90)"
       id="text51124"
       style="font-size:21.1667px;line-height:1.25;font-family:'Roboto Slab';-inkscape-font-specification:'Roboto Slab, @wght=300';font-variation-settings:'wght' 300;letter-spacing:-0.992188px;fill:#ffffff;stroke-width:0.264583">
      <path
         d="m -1.1175871e-8,-96.847145 v -0.82424 L 1.5442658,-97.794547 V -109.68445 L -1.1175871e-8,-109.80761 v -0.83371 H 4.2254144 v 0.83371 l -1.5442658,0.12316 v 11.889903 l 1.5442658,0.123162 v 0.82424 z"
         style="font-size:19.4028px;fill:#ffffff"
         id="path826" />
      <path
         d="m 4.7206482,-96.847145 v -0.82424 l 1.5442658,-0.123162 v -8.346613 l -1.5442658,-0.12316 v -0.83372 h 2.5485122 l 0.09474,1.83796 q 0.4926492,-0.96635 1.3263632,-1.49689 0.8337141,-0.53055 1.9895454,-0.53055 1.667428,0 2.539038,1.0232 0.87161,1.01372 0.87161,3.18327 v 5.286503 l 1.544266,0.123162 v 0.82424 h -4.225414 v -0.82424 l 1.544265,-0.123162 v -5.277033 q 0,-1.78111 -0.653707,-2.51061 -0.653708,-0.7295 -1.866383,-0.7295 -1.2695192,0 -2.008493,0.71055 -0.7389738,0.71055 -1.0231945,1.85691 v 5.949683 l 1.5442657,0.123162 v 0.82424 z"
         style="font-size:19.4028px;fill:#ffffff"
         id="path828" />
      <path
         d="m 20.544851,-92.706997 q -0.748448,0 -1.582162,-0.180006 -0.833714,-0.180007 -1.459,-0.483176 l 0.303169,-0.947402 q 0.606337,0.293695 1.278993,0.454753 0.68213,0.161059 1.440052,0.161059 1.458999,0 2.188499,-0.871611 0.738974,-0.862136 0.738974,-2.406401 v -1.250571 q -0.511597,0.748447 -1.316889,1.165304 -0.795818,0.416857 -1.856909,0.416857 -1.231623,0 -2.112707,-0.625285 -0.881084,-0.625286 -1.354785,-1.752694 -0.473702,-1.13688 -0.473702,-2.6622 v -0.19896 q 0,-1.639 0.473702,-2.85168 0.473701,-1.21267 1.354785,-1.87585 0.890558,-0.67266 2.131655,-0.67266 1.098987,0 1.904279,0.4737 0.805292,0.4737 1.307415,1.32637 l 0.123162,-1.61059 h 0.956877 v 10.118259 q 0,1.316889 -0.483176,2.273765 -0.473701,0.956877 -1.383207,1.477948 -0.909506,0.521071 -2.179025,0.521071 z m -0.05684,-4.917018 q 1.117934,0 1.847434,-0.511597 0.738974,-0.511597 1.117935,-1.402156 v -4.689642 q -0.360013,-0.90003 -1.061091,-1.48742 -0.701078,-0.59686 -1.88533,-0.59686 -0.994773,0 -1.667428,0.56844 -0.672656,0.55896 -1.013721,1.55374 -0.341065,0.99477 -0.341065,2.30218 v 0.19896 q 0,1.856908 0.748448,2.965368 0.757922,1.098987 2.254818,1.098987 z m 3.874875,-8.498195 -0.369487,-0.97583 h 1.913753 v 0.82424 z"
         style="font-size:19.4028px;fill:#ffffff"
         id="path830" />
      <path
         d="m 30.779381,-96.648191 q -1.316889,0 -2.321136,-0.634759 -1.004246,-0.644234 -1.572688,-1.771642 -0.568441,-1.136888 -0.568441,-2.614828 v -0.52107 q 0,-1.46848 0.568441,-2.61483 0.568442,-1.15584 1.534792,-1.81902 0.975825,-0.66318 2.169551,-0.66318 1.260046,0 2.150604,0.54002 0.900032,0.54002 1.373733,1.52532 0.483175,0.97582 0.483175,2.30219 v 0.96635 h -7.105517 l -0.01895,0.41685 q 0.0095,1.13689 0.416857,2.027444 0.416857,0.890559 1.155831,1.402156 0.748447,0.511597 1.733746,0.511597 0.96635,0 1.69585,-0.303169 0.738974,-0.312642 1.297941,-0.843188 l 0.483175,0.77687 q -0.596863,0.568442 -1.449525,0.947403 -0.843188,0.369486 -2.027441,0.369486 z m -3.211694,-6.252859 h 5.892842 v -0.28422 q 0,-0.90003 -0.350538,-1.61058 -0.341065,-0.72003 -0.985299,-1.12741 -0.634759,-0.40738 -1.534792,-0.40738 -0.814766,0 -1.468473,0.44528 -0.653708,0.4358 -1.070565,1.2032 -0.407383,0.75792 -0.502123,1.72427 z m 2.188499,-6.35707 1.724273,-2.3685 h 1.326363 l 0.01895,0.0474 -2.188499,2.34956 h -0.833714 z"
         style="font-size:19.4028px;fill:#ffffff"
         id="path832" />
      <path
         d="m 35.367391,-96.847145 v -0.82424 l 1.544266,-0.123162 v -8.346613 l -1.544266,-0.12316 v -0.83372 h 2.548512 l 0.09474,1.83796 q 0.49265,-0.96635 1.326364,-1.49689 0.833714,-0.53055 1.989545,-0.53055 1.667428,0 2.539038,1.0232 0.87161,1.01372 0.87161,3.18327 v 5.286503 l 1.544266,0.123162 v 0.82424 h -4.225415 v -0.82424 l 1.544266,-0.123162 v -5.277033 q 0,-1.78111 -0.653707,-2.51061 -0.653708,-0.7295 -1.866383,-0.7295 -1.269519,0 -2.008493,0.71055 -0.738974,0.71055 -1.023194,1.85691 v 5.949683 l 1.544265,0.123162 v 0.82424 z"
         style="font-size:19.4028px;fill:#ffffff"
         id="path834" />
      <path
         d="m 46.956706,-96.847145 v -0.82424 l 1.544266,-0.123162 v -8.346613 l -1.544266,-0.12316 v -0.83372 h 2.681148 v 9.303493 l 1.544266,0.123162 v 0.82424 z m 1.411629,-13.140475 v -1.639 h 1.269519 v 1.639 z"
         style="font-size:19.4028px;fill:#ffffff"
         id="path836" />
      <path
         d="m 56.528057,-96.648191 q -1.316889,0 -2.321135,-0.634759 -1.004247,-0.644234 -1.572688,-1.771642 -0.568442,-1.136888 -0.568442,-2.614828 v -0.52107 q 0,-1.46848 0.568442,-2.61483 0.568441,-1.15584 1.534791,-1.81902 0.975825,-0.66318 2.169552,-0.66318 1.260045,0 2.150603,0.54002 0.900032,0.54002 1.373733,1.52532 0.483176,0.97582 0.483176,2.30219 v 0.96635 h -7.105518 l -0.01895,0.41685 q 0.0095,1.13689 0.416857,2.027444 0.416857,0.890559 1.155831,1.402156 0.748448,0.511597 1.733746,0.511597 0.966351,0 1.69585,-0.303169 0.738974,-0.312642 1.297942,-0.843188 l 0.483175,0.77687 q -0.596864,0.568442 -1.449526,0.947403 -0.843188,0.369486 -2.027441,0.369486 z m -3.211694,-6.252859 h 5.892843 v -0.28422 q 0,-0.90003 -0.350539,-1.61058 -0.341065,-0.72003 -0.985298,-1.12741 -0.63476,-0.40738 -1.534792,-0.40738 -0.814766,0 -1.468474,0.44528 -0.653707,0.4358 -1.070564,1.2032 -0.407383,0.75792 -0.502124,1.72427 z"
         style="font-size:19.4028px;fill:#ffffff"
         id="path838" />
      <path
         d="m 65.464644,-96.648191 q -1.610584,0 -2.510616,-1.098986 -0.890558,-1.098987 -0.890558,-3.410653 v -4.98333 l -1.269519,-0.12316 v -0.83372 h 1.269519 1.136882 v 5.95916 q 0,1.875859 0.615812,2.700099 0.615811,0.814766 1.781116,0.814766 1.31689,0 2.055863,-0.606337 0.738974,-0.615812 1.013721,-1.648481 v -6.262327 l -1.459,-0.12316 v -0.83372 h 1.459 1.146357 v 9.303493 l 1.373733,0.123162 v 0.82424 h -2.37798 l -0.09474,-1.686376 q -0.483175,0.900032 -1.297941,1.392681 -0.805292,0.492649 -1.951649,0.492649 z"
         style="font-size:19.4028px;fill:#ffffff"
         id="path840" />
      <path
         d="m 71.691665,-96.847145 v -0.82424 l 1.544266,-0.123162 v -8.346613 l -1.544266,-0.12316 v -0.83372 h 2.539038 l 0.123162,1.56322 0.0095,0.27474 q 0.435805,-0.95687 1.184253,-1.48742 0.748448,-0.54002 1.790591,-0.54002 0.255798,0 0.540019,0.0474 0.293695,0.0379 0.426331,0.0853 l -0.14211,1.04214 -1.051617,-0.0663 q -1.089513,-0.0284 -1.781116,0.62529 -0.691604,0.65371 -0.956877,1.73374 v 6.025483 l 1.544266,0.123162 v 0.82424 z"
         style="font-size:19.4028px;fill:#ffffff"
         id="path842" />
      <path
         d="m 79.320837,-102.25681 v -0.9474 h 4.538057 v 0.9474 z"
         style="font-size:19.4028px;fill:#ffffff"
         id="path844" />
      <path
         d="m 91.668068,-96.648191 q -2.046389,0 -3.448545,-0.890558 -1.392681,-0.900032 -2.112707,-2.482191 -0.710552,-1.58216 -0.710552,-3.62855 v -0.18001 q 0,-2.06534 0.738974,-3.63803 0.748448,-1.58216 2.112707,-2.47272 1.36426,-0.90003 3.20222,-0.90003 1.421104,0 2.444298,0.39791 1.032669,0.39791 1.828487,1.08951 v 2.68115 h -0.966351 l -0.09474,-2.19797 q -0.416857,-0.31264 -0.881084,-0.53055 -0.454753,-0.2179 -1.023195,-0.33159 -0.558967,-0.12316 -1.307415,-0.12316 -1.50637,0 -2.61483,0.7674 -1.098987,0.75792 -1.705324,2.1127 -0.596864,1.34532 -0.596864,3.12643 v 0.19896 q 0,1.83796 0.606338,3.19274 0.615811,1.354787 1.762168,2.093761 1.155831,0.738974 2.775889,0.738974 0.87161,0 1.676902,-0.217903 0.814766,-0.217902 1.373733,-0.577915 l 0.09474,-2.084287 h 0.956877 v 2.747469 q -0.843188,0.549493 -1.904279,0.833714 -1.051616,0.274746 -2.207447,0.274746 z"
         style="font-size:19.4028px;fill:#ffffff"
         id="path846" />
      <path
         d="m 101.32469,-96.648191 q -1.38321,0 -2.406404,-0.653707 -1.013721,-0.663182 -1.582162,-1.828487 -0.558967,-1.174775 -0.558967,-2.681145 v -0.31265 q 0,-1.50637 0.558967,-2.67167 0.568441,-1.16531 1.582162,-1.82849 1.023194,-0.66318 2.387454,-0.66318 1.37373,0 2.38745,0.66318 1.0232,0.66318 1.58217,1.82849 0.56844,1.15583 0.56844,2.67167 v 0.31265 q 0,1.51584 -0.56844,2.681145 -0.55897,1.165305 -1.58217,1.828487 -1.01372,0.653707 -2.3685,0.653707 z m 0,-0.947402 q 1.05161,0 1.80954,-0.558967 0.75792,-0.558968 1.1653,-1.515844 0.40738,-0.956876 0.40738,-2.141126 v -0.31265 q 0,-1.17477 -0.40738,-2.13165 -0.40738,-0.95688 -1.17478,-1.51584 -0.75792,-0.55897 -1.81901,-0.55897 -1.06109,0 -1.828487,0.55897 -0.757922,0.55896 -1.165305,1.51584 -0.397909,0.95688 -0.397909,2.13165 v 0.31265 q 0,1.19372 0.397909,2.1506 0.407383,0.947402 1.165305,1.50637 0.767397,0.558967 1.847437,0.558967 z"
         style="font-size:19.4028px;fill:#ffffff"
         id="path848" />
      <path
         d="m 106.50009,-96.847145 v -0.82424 l 1.54426,-0.123162 v -8.346613 l -1.54426,-0.12316 v -0.83372 h 2.54851 l 0.0947,1.83796 q 0.49265,-0.96635 1.32636,-1.49689 0.83372,-0.53055 1.98955,-0.53055 1.66743,0 2.53904,1.0232 0.87161,1.01372 0.87161,3.18327 v 5.286503 l 1.54426,0.123162 v 0.82424 h -4.22541 v -0.82424 l 1.54427,-0.123162 v -5.277033 q 0,-1.78111 -0.65371,-2.51061 -0.65371,-0.7295 -1.86638,-0.7295 -1.26952,0 -2.0085,0.71055 -0.73897,0.71055 -1.02319,1.85691 v 5.949683 l 1.54426,0.123162 v 0.82424 z"
         style="font-size:19.4028px;fill:#ffffff"
         id="path850" />
      <path
         d="m 122.06849,-96.648191 q -1.08004,0 -2.00849,-0.28422 -0.91898,-0.293695 -1.73375,-0.843188 l -0.009,-2.103234 h 0.92845 l 0.16106,1.50637 q 0.5495,0.426331 1.22215,0.615812 0.67266,0.18948 1.44005,0.18948 1.28847,0 1.96113,-0.558967 0.67265,-0.558968 0.67265,-1.326363 0,-0.720029 -0.60634,-1.269519 -0.59686,-0.55897 -2.13165,-0.90003 -1.83796,-0.39791 -2.6622,-1.06109 -0.81477,-0.66319 -0.81477,-1.84744 0,-0.77687 0.43581,-1.40215 0.4358,-0.62529 1.23162,-0.9853 0.80529,-0.36949 1.88533,-0.36949 1.12741,0 1.96112,0.33159 0.83372,0.32212 1.43058,0.87161 l 0.0474,2.10324 h -0.92845 l -0.13264,-1.51585 q -0.42633,-0.40738 -0.99477,-0.62528 -0.56844,-0.22738 -1.38321,-0.22738 -1.15583,0 -1.78111,0.54002 -0.62529,0.53054 -0.62529,1.2411 0,0.46422 0.18948,0.81476 0.19895,0.34107 0.74845,0.61581 0.55897,0.27475 1.62006,0.52107 1.92322,0.43581 2.78536,1.18426 0.86213,0.73897 0.86213,1.923224 0,1.250571 -0.97582,2.055863 -0.96635,0.805292 -2.79484,0.805292 z"
         style="font-size:19.4028px;fill:#ffffff"
         id="path852" />
      <path
         d="m 131.31772,-96.648191 q -1.31689,0 -2.32114,-0.634759 -1.00424,-0.644234 -1.57268,-1.771642 -0.56845,-1.136888 -0.56845,-2.614828 v -0.52107 q 0,-1.46848 0.56845,-2.61483 0.56844,-1.15584 1.53479,-1.81902 0.97582,-0.66318 2.16955,-0.66318 1.26004,0 2.1506,0.54002 0.90003,0.54002 1.37373,1.52532 0.48318,0.97582 0.48318,2.30219 v 0.96635 h -7.10552 l -0.0189,0.41685 q 0.009,1.13689 0.41686,2.027444 0.41686,0.890559 1.15583,1.402156 0.74845,0.511597 1.73375,0.511597 0.96635,0 1.69585,-0.303169 0.73897,-0.312642 1.29794,-0.843188 l 0.48318,0.77687 q -0.59687,0.568442 -1.44953,0.947403 -0.84319,0.369486 -2.02744,0.369486 z m -3.2117,-6.252859 h 5.89285 v -0.28422 q 0,-0.90003 -0.35054,-1.61058 -0.34107,-0.72003 -0.9853,-1.12741 -0.63476,-0.40738 -1.53479,-0.40738 -0.81477,0 -1.46848,0.44528 -0.6537,0.4358 -1.07056,1.2032 -0.40738,0.75792 -0.50212,1.72427 z"
         style="font-size:19.4028px;fill:#ffffff"
         id="path854" />
      <path
         d="m 135.87731,-96.847145 v -0.82424 l 1.54427,-0.123162 v -8.346613 l -1.54427,-0.12316 v -0.83372 h 2.68115 v 9.303493 l 1.54427,0.123162 v 0.82424 z m 1.41163,-13.140475 v -1.639 h 1.26952 v 1.639 z"
         style="font-size:19.4028px;fill:#ffffff"
         id="path856" />
      <path
         d="m 140.79691,-96.847145 v -0.82424 l 1.54426,-0.123162 v -12.875193 l -1.54426,-0.12317 v -0.83371 h 2.68115 v 13.832073 l 1.54426,0.123162 v 0.82424 z"
         style="font-size:19.4028px;fill:#ffffff"
         id="path858" />
    </g>
  </g>
</svg>
