<?xml version="1.0" standalone="yes"?>
<svg width="1920" height="1080" xmlns="http://www.w3.org/2000/svg" version="1.1" >
	
	<polygon points="0,0 0,1079 6,146" fill="#473223" stroke="#473223" stroke-width="1" stroke-linejoin="miter"/>
	<polygon points="6,146 0,1079 14,416" fill="#4a3225" stroke="#4a3225" stroke-width="1" stroke-linejoin="miter"/>
	<polygon points="14,416 0,1079 27,686" fill="#4b3123" stroke="#4b3123" stroke-width="1" stroke-linejoin="miter"/>
	<polygon points="27,686 0,1079 116,810" fill="#37251b" stroke="#37251b" stroke-width="1" stroke-linejoin="miter"/>
	<polygon points="14,416 27,686 126,540" fill="#4a3226" stroke="#4a3226" stroke-width="1" stroke-linejoin="miter"/>
	<polygon points="6,146 14,416 132,270" fill="#4b3627" stroke="#4b3627" stroke-width="1" stroke-linejoin="miter"/>
	<polygon points="2,-123 0,0 135,0" fill="#927356" stroke="#927356" stroke-width="1" stroke-linejoin="miter"/>
	<polygon points="0,0 6,146 135,0" fill="#927356" stroke="#927356" stroke-width="1" stroke-linejoin="miter"/>
	<polygon points="6,146 132,270 135,0" fill="#947558" stroke="#947558" stroke-width="1" stroke-linejoin="miter"/>
	<polygon points="14,416 126,540 132,270" fill="#4d3222" stroke="#4d3222" stroke-width="1" stroke-linejoin="miter"/>
	<polygon points="116,810 0,1079 301,1087" fill="#37271f" stroke="#37271f" stroke-width="1" stroke-linejoin="miter"/>
	<polygon points="288,817 116,810 301,1087" fill="#261911" stroke="#261911" stroke-width="1" stroke-linejoin="miter"/>
	<polygon points="280,547 116,810 288,817" fill="#3c291b" stroke="#3c291b" stroke-width="1" stroke-linejoin="miter"/>
	<polygon points="126,540 116,810 280,547" fill="#412d1f" stroke="#412d1f" stroke-width="1" stroke-linejoin="miter"/>
	<polygon points="276,277 126,540 280,547" fill="#4a3125" stroke="#4a3125" stroke-width="1" stroke-linejoin="miter"/>
	<polygon points="135,0 132,270 276,277" fill="#9a7b5e" stroke="#9a7b5e" stroke-width="1" stroke-linejoin="miter"/>
	<polygon points="132,270 126,540 276,277" fill="#5d4733" stroke="#5d4733" stroke-width="1" stroke-linejoin="miter"/>
	<polygon points="27,686 116,810 126,540" fill="#473122" stroke="#473122" stroke-width="1" stroke-linejoin="miter"/>
	<polygon points="280,547 288,817 390,637" fill="#3a251c" stroke="#3a251c" stroke-width="1" stroke-linejoin="miter"/>
	<polygon points="135,0 276,277 406,97" fill="#9e8264" stroke="#9e8264" stroke-width="1" stroke-linejoin="miter"/>
	<polygon points="276,277 280,547 400,367" fill="#493123" stroke="#493123" stroke-width="1" stroke-linejoin="miter"/>
	<polygon points="2,-123 135,0 409,-172" fill="#9a7b5e" stroke="#9a7b5e" stroke-width="1" stroke-linejoin="miter"/>
	<polygon points="135,0 406,97 409,-172" fill="#a18567" stroke="#a18567" stroke-width="1" stroke-linejoin="miter"/>
	<polygon points="276,277 400,367 406,97" fill="#463321" stroke="#463321" stroke-width="1" stroke-linejoin="miter"/>
	<polygon points="280,547 390,637 400,367" fill="#41291b" stroke="#41291b" stroke-width="1" stroke-linejoin="miter"/>
	<polygon points="400,367 390,637 554,441" fill="#4b3325" stroke="#4b3325" stroke-width="1" stroke-linejoin="miter"/>
	<polygon points="406,97 400,367 550,171" fill="#75563f" stroke="#75563f" stroke-width="1" stroke-linejoin="miter"/>
	<polygon points="288,817 301,1087 575,981" fill="#39261a" stroke="#39261a" stroke-width="1" stroke-linejoin="miter"/>
	<polygon points="562,711 288,817 575,981" fill="#3d281a" stroke="#3d281a" stroke-width="1" stroke-linejoin="miter"/>
	<polygon points="554,441 390,637 562,711" fill="#432f1f" stroke="#432f1f" stroke-width="1" stroke-linejoin="miter"/>
	<polygon points="390,637 288,817 562,711" fill="#3f281d" stroke="#3f281d" stroke-width="1" stroke-linejoin="miter"/>
	<polygon points="550,171 400,367 554,441" fill="#4c3424" stroke="#4c3424" stroke-width="1" stroke-linejoin="miter"/>
	<polygon points="562,711 575,981 674,808" fill="#402b1e" stroke="#402b1e" stroke-width="1" stroke-linejoin="miter"/>
	<polygon points="575,981 301,1087 664,1078" fill="#392519" stroke="#392519" stroke-width="1" stroke-linejoin="miter"/>
	<polygon points="550,171 554,441 683,268" fill="#422e21" stroke="#422e21" stroke-width="1" stroke-linejoin="miter"/>
	<polygon points="554,441 680,538 683,268" fill="#4b3323" stroke="#4b3323" stroke-width="1" stroke-linejoin="miter"/>
	<polygon points="554,441 562,711 680,538" fill="#38271c" stroke="#38271c" stroke-width="1" stroke-linejoin="miter"/>
	<polygon points="409,-172 406,97 550,171" fill="#aa9070" stroke="#aa9070" stroke-width="1" stroke-linejoin="miter"/>
	<polygon points="409,-172 550,171 824,-64" fill="#b39c78" stroke="#b39c78" stroke-width="1" stroke-linejoin="miter"/>
	<polygon points="562,711 674,808 680,538" fill="#422b1f" stroke="#422b1f" stroke-width="1" stroke-linejoin="miter"/>
	<polygon points="680,538 674,808 849,745" fill="#392519" stroke="#392519" stroke-width="1" stroke-linejoin="miter"/>
	<polygon points="683,268 680,538 836,475" fill="#4a3326" stroke="#4a3326" stroke-width="1" stroke-linejoin="miter"/>
	<polygon points="550,171 683,268 828,205" fill="#715740" stroke="#715740" stroke-width="1" stroke-linejoin="miter"/>
	<polygon points="824,-64 550,171 828,205" fill="#bca984" stroke="#bca984" stroke-width="1" stroke-linejoin="miter"/>
	<polygon points="575,981 664,1078 674,808" fill="#2e1f16" stroke="#2e1f16" stroke-width="1" stroke-linejoin="miter"/>
	<polygon points="836,475 849,745 938,566" fill="#402e20" stroke="#402e20" stroke-width="1" stroke-linejoin="miter"/>
	<polygon points="836,475 680,538 849,745" fill="#27160d" stroke="#27160d" stroke-width="1" stroke-linejoin="miter"/>
	<polygon points="828,205 683,268 836,475" fill="#463326" stroke="#463326" stroke-width="1" stroke-linejoin="miter"/>
	<polygon points="828,205 836,475 948,296" fill="#443022" stroke="#443022" stroke-width="1" stroke-linejoin="miter"/>
	<polygon points="824,-64 954,26 957,-243" fill="#c9b792" stroke="#c9b792" stroke-width="1" stroke-linejoin="miter"/>
	<polygon points="409,-172 824,-64 957,-243" fill="#bca883" stroke="#bca883" stroke-width="1" stroke-linejoin="miter"/>
	<polygon points="824,-64 828,205 954,26" fill="#c5b48c" stroke="#c5b48c" stroke-width="1" stroke-linejoin="miter"/>
	<polygon points="828,205 948,296 954,26" fill="#c8b78f" stroke="#c8b78f" stroke-width="1" stroke-linejoin="miter"/>
	<polygon points="674,808 664,1078 849,745" fill="#130a06" stroke="#130a06" stroke-width="1" stroke-linejoin="miter"/>
	<polygon points="836,475 938,566 1098,408" fill="#251911" stroke="#251911" stroke-width="1" stroke-linejoin="miter"/>
	<polygon points="948,296 836,475 1098,408" fill="#433125" stroke="#433125" stroke-width="1" stroke-linejoin="miter"/>
	<polygon points="938,566 849,745 1102,678" fill="#513221" stroke="#513221" stroke-width="1" stroke-linejoin="miter"/>
	<polygon points="849,745 664,1078 1110,948" fill="#4f3322" stroke="#4f3322" stroke-width="1" stroke-linejoin="miter"/>
	<polygon points="1110,948 664,1078 1123,1218" fill="#1b0e08" stroke="#1b0e08" stroke-width="1" stroke-linejoin="miter"/>
	<polygon points="1102,678 849,745 1110,948" fill="#4e3221" stroke="#4e3221" stroke-width="1" stroke-linejoin="miter"/>
	<polygon points="1098,408 938,566 1102,678" fill="#6e4932" stroke="#6e4932" stroke-width="1" stroke-linejoin="miter"/>
	<polygon points="954,26 948,296 1231,110" fill="#d2c39b" stroke="#d2c39b" stroke-width="1" stroke-linejoin="miter"/>
	<polygon points="948,296 1098,408 1231,110" fill="#3f2e21" stroke="#3f2e21" stroke-width="1" stroke-linejoin="miter"/>
	<polygon points="1098,408 1228,380 1231,110" fill="#4b3427" stroke="#4b3427" stroke-width="1" stroke-linejoin="miter"/>
	<polygon points="1098,408 1222,650 1228,380" fill="#5d3e2a" stroke="#5d3e2a" stroke-width="1" stroke-linejoin="miter"/>
	<polygon points="1098,408 1102,678 1222,650" fill="#22140c" stroke="#22140c" stroke-width="1" stroke-linejoin="miter"/>
	<polygon points="1102,678 1212,920 1222,650" fill="#27140d" stroke="#27140d" stroke-width="1" stroke-linejoin="miter"/>
	<polygon points="1102,678 1110,948 1212,920" fill="#5c3b25" stroke="#5c3b25" stroke-width="1" stroke-linejoin="miter"/>
	<polygon points="1110,948 1123,1218 1212,920" fill="#422d21" stroke="#422d21" stroke-width="1" stroke-linejoin="miter"/>
	<polygon points="957,-243 954,26 1372,-90" fill="#d6c69e" stroke="#d6c69e" stroke-width="1" stroke-linejoin="miter"/>
	<polygon points="954,26 1231,110 1372,-90" fill="#dccfa6" stroke="#dccfa6" stroke-width="1" stroke-linejoin="miter"/>
	<polygon points="1231,110 1228,380 1376,179" fill="#433023" stroke="#433023" stroke-width="1" stroke-linejoin="miter"/>
	<polygon points="1222,650 1212,920 1397,719" fill="#492d1b" stroke="#492d1b" stroke-width="1" stroke-linejoin="miter"/>
	<polygon points="1228,380 1222,650 1384,449" fill="#664532" stroke="#664532" stroke-width="1" stroke-linejoin="miter"/>
	<polygon points="1397,719 1212,920 1486,881" fill="#5d3926" stroke="#5d3926" stroke-width="1" stroke-linejoin="miter"/>
	<polygon points="1384,449 1222,650 1397,719" fill="#61422d" stroke="#61422d" stroke-width="1" stroke-linejoin="miter"/>
	<polygon points="1376,179 1228,380 1384,449" fill="#493226" stroke="#493226" stroke-width="1" stroke-linejoin="miter"/>
	<polygon points="1372,-90 1231,110 1376,179" fill="#e6dbb0" stroke="#e6dbb0" stroke-width="1" stroke-linejoin="miter"/>
	<polygon points="1384,449 1397,719 1496,611" fill="#65412d" stroke="#65412d" stroke-width="1" stroke-linejoin="miter"/>
	<polygon points="1376,179 1384,449 1502,341" fill="#37251c" stroke="#37251c" stroke-width="1" stroke-linejoin="miter"/>
	<polygon points="1372,-90 1376,179 1505,71" fill="#ece1b6" stroke="#ece1b6" stroke-width="1" stroke-linejoin="miter"/>
	<polygon points="1376,179 1502,341 1505,71" fill="#805e48" stroke="#805e48" stroke-width="1" stroke-linejoin="miter"/>
	<polygon points="1505,71 1502,341 1646,211" fill="#7e5d46" stroke="#7e5d46" stroke-width="1" stroke-linejoin="miter"/>
	<polygon points="1384,449 1496,611 1650,481" fill="#6a472e" stroke="#6a472e" stroke-width="1" stroke-linejoin="miter"/>
	<polygon points="1502,341 1384,449 1650,481" fill="#4e3221" stroke="#4e3221" stroke-width="1" stroke-linejoin="miter"/>
	<polygon points="1212,920 1123,1218 1486,881" fill="#503527" stroke="#503527" stroke-width="1" stroke-linejoin="miter"/>
	<polygon points="1397,719 1486,881 1658,751" fill="#623d2c" stroke="#623d2c" stroke-width="1" stroke-linejoin="miter"/>
	<polygon points="1496,611 1397,719 1658,751" fill="#362317" stroke="#362317" stroke-width="1" stroke-linejoin="miter"/>
	<polygon points="1486,881 1123,1218 1671,1021" fill="#2f1c0f" stroke="#2f1c0f" stroke-width="1" stroke-linejoin="miter"/>
	<polygon points="1650,481 1496,611 1760,587" fill="#8e5d3d" stroke="#8e5d3d" stroke-width="1" stroke-linejoin="miter"/>
	<polygon points="1496,611 1658,751 1760,587" fill="#573725" stroke="#573725" stroke-width="1" stroke-linejoin="miter"/>
	<polygon points="1658,751 1486,881 1671,1021" fill="#492d21" stroke="#492d21" stroke-width="1" stroke-linejoin="miter"/>
	<polygon points="1646,211 1650,481 1770,317" fill="#483225" stroke="#483225" stroke-width="1" stroke-linejoin="miter"/>
	<polygon points="1646,211 1502,341 1650,481" fill="#3d2a1d" stroke="#3d2a1d" stroke-width="1" stroke-linejoin="miter"/>
	<polygon points="1505,71 1646,211 1776,47" fill="#f7efc1" stroke="#f7efc1" stroke-width="1" stroke-linejoin="miter"/>
	<polygon points="1372,-90 1505,71 1779,-222" fill="#f3ebbf" stroke="#f3ebbf" stroke-width="1" stroke-linejoin="miter"/>
	<polygon points="1505,71 1776,47 1779,-222" fill="#f8f2c3" stroke="#f8f2c3" stroke-width="1" stroke-linejoin="miter"/>
	<polygon points="1646,211 1770,317 1776,47" fill="#7d6149" stroke="#7d6149" stroke-width="1" stroke-linejoin="miter"/>
	<polygon points="664,1078 301,1087 1123,1218" fill="#442f20" stroke="#442f20" stroke-width="1" stroke-linejoin="miter"/>
	<polygon points="1779,-222 1776,47 1919,0" fill="#fef9ca" stroke="#fef9ca" stroke-width="1" stroke-linejoin="miter"/>
	<polygon points="1650,481 1760,587 1770,317" fill="#472b1a" stroke="#472b1a" stroke-width="1" stroke-linejoin="miter"/>
	<polygon points="957,-243 1372,-90 1779,-222" fill="#e8ddb3" stroke="#e8ddb3" stroke-width="1" stroke-linejoin="miter"/>
	<polygon points="1760,587 1658,751 2044,813" fill="#5e4330" stroke="#5e4330" stroke-width="1" stroke-linejoin="miter"/>
	<polygon points="2,-123 409,-172 957,-243" fill="#a9906f" stroke="#a9906f" stroke-width="1" stroke-linejoin="miter"/>
	<polygon points="301,1087 0,1079 1123,1218" fill="#432d1f" stroke="#432d1f" stroke-width="1" stroke-linejoin="miter"/>
	<polygon points="1671,1021 1123,1218 1919,1079" fill="#462b1c" stroke="#462b1c" stroke-width="1" stroke-linejoin="miter"/>
	<polygon points="1658,751 1671,1021 1919,1079" fill="#4b3328" stroke="#4b3328" stroke-width="1" stroke-linejoin="miter"/>
	<polygon points="1919,1079 1123,1218 2034,1083" fill="#503728" stroke="#503728" stroke-width="1" stroke-linejoin="miter"/>
	<polygon points="1658,751 1919,1079 2044,813" fill="#4e372a" stroke="#4e372a" stroke-width="1" stroke-linejoin="miter"/>
	<polygon points="1919,1079 2034,1083 2044,813" fill="#170d06" stroke="#170d06" stroke-width="1" stroke-linejoin="miter"/>
	<polygon points="1760,587 2044,813 2050,543" fill="#563826" stroke="#563826" stroke-width="1" stroke-linejoin="miter"/>
	<polygon points="1770,317 1760,587 2050,543" fill="#502f1e" stroke="#502f1e" stroke-width="1" stroke-linejoin="miter"/>
	<polygon points="1919,0 1776,47 2053,273" fill="#fdfbcb" stroke="#fdfbcb" stroke-width="1" stroke-linejoin="miter"/>
	<polygon points="1776,47 1770,317 2053,273" fill="#423428" stroke="#423428" stroke-width="1" stroke-linejoin="miter"/>
	<polygon points="1770,317 2050,543 2053,273" fill="#71553f" stroke="#71553f" stroke-width="1" stroke-linejoin="miter"/>
	
</svg>